<svg width="732" height="800" viewBox="0 0 732 800" fill="white" xmlns="http://www.w3.org/2000/svg">
<path d="M365 777.5H431C422.167 765.334 405.1 729.8 407.5 685C509.167 672.667 711.1 597.8 705.5 397C698.5 146 466 110.5 422 112C419 84.3335 416 52 432 22H365" stroke="#0F4E0D" stroke-width="30"/>
<path d="M365.613 777.5H299.613C308.447 765.334 325.513 729.8 323.113 685C221.447 672.667 19.5133 597.8 25.1133 397C32.1133 146 264.613 110.5 308.613 112C311.613 84.3335 314.613 52 298.613 22H365.613" stroke="#0F4E0D" stroke-width="30"/>
<path d="M314 201.5V590.5C246.167 584.333 111.1 536.2 113.5 393C115.9 249.8 248.167 205.667 314 201.5Z" stroke="#0F4E0D" stroke-width="30"/>
<path d="M409 202V591C476.833 584.833 611.9 536.7 609.5 393.5C607.1 250.3 474.833 206.167 409 202Z" stroke="#0F4E0D" stroke-width="30"/>
<path d="M463.5 499V298.5H521V499" stroke="#0F4E0D" stroke-width="30"/>
<path d="M260.499 304C235.499 304.167 184.698 328.4 187.498 398C190.298 467.6 237.832 482.5 260.499 484.5" stroke="#0F4E0D" stroke-width="30"/>
</svg>
